<svg version="1.1" viewBox="0.0 0.0 498.0 498.0" fill="none" stroke="none" stroke-linecap="square" stroke-miterlimit="10" xmlns:xlink="http://www.w3.org/1999/xlink" xmlns="http://www.w3.org/2000/svg">
<clipPath id="p.0">
<path d="m0 0l498.0 0l0 498.0l-498.0 0l0 -498.0z" clip-rule="nonzero"/>
</clipPath>
<g clip-path="url(#p.0)">
<path fill="#000000" d="m0 0.0l498 0l0 498l-498 0z" fill-rule="evenodd"/>

<!-- <path stroke="#000000" stroke-width="0.0" stroke-linejoin="round" stroke-linecap="butt" d="m0 0.61417323l498.11023 0l0 498.11023l-498.11023 0z" fill-rule="evenodd"/> -->
<path stroke="#ffffff" stroke-width="8.0" stroke-linejoin="round" stroke-linecap="butt" d="m317.4321 38.354332l0 0c37.7641 37.7641 37.7641 98.9918 0 136.75589q-34.188995 34.18898 -68.37796 68.37796q-34.18898 -34.18898 -68.377945 -68.37796l0 0c-37.7641 -37.7641 -37.7641 -98.9918 0 -136.75589l0 0c37.7641 -37.764103 98.991806 -37.764103 136.7559 0z" fill-rule="evenodd"/>

<path stroke="#ffffff" stroke-width="8.0" stroke-linejoin="round" stroke-linecap="butt" d="m317.4321 460.98425l0 0c37.7641 -37.7641 37.7641 -98.99179 0 -136.75592q-34.188995 -34.188965 -68.37796 -68.377945q-34.18898 34.18898 -68.377945 68.377945l0 0c-37.7641 37.76413 -37.7641 98.99182 0 136.75592l0 0c37.7641 37.7641 98.991806 37.7641 136.7559 0z" fill-rule="evenodd"/>
<path fill="#4063d8" d="m222.77168 187.93439l0 0c0 -14.515961 11.767502 -26.283463 26.283463 -26.283463l0 0c6.9707947 0 13.656097 2.7691345 18.585205 7.698242c4.9291077 4.9291077 7.698242 11.61441 7.698242 18.58522l0 0c0 14.515945 -11.767487 26.283463 -26.283447 26.283463l0 0c-14.515961 0 -26.283463 -11.767517 -26.283463 -26.283463z" fill-rule="evenodd"/>
<path stroke="#ffffff" stroke-width="8.0" stroke-linejoin="round" stroke-linecap="butt" d="m222.77168 187.93439l0 0c0 -14.515961 11.767502 -26.283463 26.283463 -26.283463l0 0c6.9707947 0 13.656097 2.7691345 18.585205 7.698242c4.9291077 4.9291077 7.698242 11.61441 7.698242 18.58522l0 0c0 14.515945 -11.767487 26.283463 -26.283447 26.283463l0 0c-14.515961 0 -26.283463 -11.767517 -26.283463 -26.283463z" fill-rule="evenodd"/>
<path fill="#389826" d="m222.77168 377.60645l0 0c0 -14.515961 11.767502 -26.283478 26.283463 -26.283478l0 0c6.9707947 0 13.656097 2.7691345 18.585205 7.698242c4.9291077 4.9291077 7.698242 11.61441 7.698242 18.585236l0 0c0 14.515961 -11.767487 26.283447 -26.283447 26.283447l0 0c-14.515961 0 -26.283463 -11.767487 -26.283463 -26.283447z" fill-rule="evenodd"/>
<path stroke="#ffffff" stroke-width="8.0" stroke-linejoin="round" stroke-linecap="butt" d="m222.77168 377.60645l0 0c0 -14.515961 11.767502 -26.283478 26.283463 -26.283478l0 0c6.9707947 0 13.656097 2.7691345 18.585205 7.698242c4.9291077 4.9291077 7.698242 11.61441 7.698242 18.585236l0 0c0 14.515961 -11.767487 26.283447 -26.283447 26.283447l0 0c-14.515961 0 -26.283463 -11.767487 -26.283463 -26.283447z" fill-rule="evenodd"/>
<path fill="#cb3c33" d="m188.48819 436.1735l0 0c0 -14.51593 11.767502 -26.283447 26.283463 -26.283447l0 0c6.97081 0 13.656113 2.7691345 18.58522 7.698242c4.9291077 4.9291077 7.698242 11.61441 7.698242 18.585205l0 0c0 14.515961 -11.767502 26.283478 -26.283463 26.283478l0 0c-14.515961 0 -26.283463 -11.767517 -26.283463 -26.283478z" fill-rule="evenodd"/>
<path stroke="#ffffff" stroke-width="8.0" stroke-linejoin="round" stroke-linecap="butt" d="m188.48819 436.1735l0 0c0 -14.51593 11.767502 -26.283447 26.283463 -26.283447l0 0c6.97081 0 13.656113 2.7691345 18.58522 7.698242c4.9291077 4.9291077 7.698242 11.61441 7.698242 18.585205l0 0c0 14.515961 -11.767502 26.283478 -26.283463 26.283478l0 0c-14.515961 0 -26.283463 -11.767517 -26.283463 -26.283478z" fill-rule="evenodd"/>
<path fill="#9558b2" d="m257.05518 436.1735l0 0c0 -14.51593 11.767487 -26.283447 26.283447 -26.283447l0 0c6.970825 0 13.656128 2.7691345 18.585236 7.698242c4.929077 4.9291077 7.698242 11.61441 7.698242 18.585205l0 0c0 14.515961 -11.767517 26.283478 -26.283478 26.283478l0 0c-14.515961 0 -26.283447 -11.767517 -26.283447 -26.283478z" fill-rule="evenodd"/>
<path stroke="#ffffff" stroke-width="8.0" stroke-linejoin="round" stroke-linecap="butt" d="m257.05518 436.1735l0 0c0 -14.51593 11.767487 -26.283447 26.283447 -26.283447l0 0c6.970825 0 13.656128 2.7691345 18.585236 7.698242c4.929077 4.9291077 7.698242 11.61441 7.698242 18.585205l0 0c0 14.515961 -11.767517 26.283478 -26.283478 26.283478l0 0c-14.515961 0 -26.283447 -11.767517 -26.283447 -26.283478z" fill-rule="evenodd"/></g></svg>